<svg width="298" height="310" viewBox="0 0 298 310" fill="none" xmlns="http://www.w3.org/2000/svg">
<path d="M133 201.75C131.833 201.75 130.917 201.417 130.25 200.75C129.75 200.25 129 200.333 128 201C127.5 200.833 126.833 200.583 126 200.25C125.333 200.083 124.75 199.833 124.25 199.5L119.75 196.25C118.583 195.417 117.333 194.583 116 193.75C114.833 193.083 113.833 192.417 113 191.75L112.25 190.75C108.75 190.917 105.083 190.25 101.25 188.75C97.5833 187.417 93.8333 185.083 90 181.75C89 181.583 88.1667 181 87.5 180C86.8333 178.833 86.1667 177.917 85.5 177.25C84.3333 177.083 83.5833 176.667 83.25 176C83.0833 175.333 82.8333 174.5 82.5 173.5C82.3333 173.5 82.1667 173.417 82 173.25C82 173.083 82 173 82 173L80.75 172V171.75C80.0833 170.417 79.6667 169.5 79.5 169C79.3333 168.5 78.6667 167.75 77.5 166.75C77.1667 166.417 76.9167 165.917 76.75 165.25C76.5833 164.417 76.3333 163.833 76 163.5C74 159.167 72.25 154.833 70.75 150.5C69.25 146.167 68.5 141.667 68.5 137C68.5 135.5 68.9167 134.417 69.75 133.75C70.5833 132.917 71.5 132.5 72.5 132.5C74.6667 132.5 76.0833 133.583 76.75 135.75C77.0833 136.25 77.4167 136.917 77.75 137.75C78.0833 138.417 78.3333 139.083 78.5 139.75L78.75 142C78.9167 143.333 79.5833 145.417 80.75 148.25C82.0833 151.083 83.5833 153.917 85.25 156.75C87.0833 159.583 88.8333 161.75 90.5 163.25L94.25 168.75C95.0833 170.75 96.25 172.667 97.75 174.5C99.25 176.167 100.583 177.417 101.75 178.25L110 185.75L112.25 187.75C116.583 187.75 120.75 185.75 124.75 181.75C128.583 178.25 131.917 173.917 134.75 168.75C137.583 163.583 140.083 158.167 142.25 152.5C144.583 146.833 146.667 141.5 148.5 136.5L149.5 135.25C150 134.25 150.333 133 150.5 131.5C150.667 130 150.833 128.667 151 127.5C151.833 126.5 152.583 125.333 153.25 124C153.917 122.667 154.167 121.333 154 120L154.25 119C154.75 118.833 154.75 118.583 154.25 118.25C153.75 117.917 154 117.667 155 117.5C156 115.833 156.583 114.083 156.75 112.25C156.917 110.417 157.25 109.083 157.75 108.25C158.25 107.583 158.667 106.917 159 106.25C159.5 105.583 159.583 104.75 159.25 103.75C159.417 103.083 159.917 101.583 160.75 99.25C161.583 96.9167 162.5 94.4167 163.5 91.75C164.667 88.9167 165.583 86.5 166.25 84.5C167.083 82.3333 167.5 81.1667 167.5 81C167.667 80.3333 167.667 79.6667 167.5 79C167.5 78.1667 167.583 77.3333 167.75 76.5L168.5 73.75C164.833 73.9167 161.083 74.3333 157.25 75C153.417 75.5 149.75 76.0833 146.25 76.75C144.417 77.0833 143.5 77.1667 143.5 77C143.667 76.6667 143.917 76.3333 144.25 76C144.75 75.5 144.583 75.25 143.75 75.25H143C141.833 75.25 140.75 75.5 139.75 76C138.917 76.3333 138.5 76.6667 138.5 77C138.333 77.6667 137.083 78.25 134.75 78.75C132.583 79.25 131.333 79.5 131 79.5C128.833 79.8333 126.833 80.1667 125 80.5C123.167 80.8333 121.5 81.0833 120 81.25C119.5 81.4167 119 81.0833 118.5 80.25C118.167 79.4167 118 78.5 118 77.5C118 76.5 118.167 75.5833 118.5 74.75C119 73.75 119.417 73.0833 119.75 72.75C119.75 72.5833 119.917 72.5 120.25 72.5H120.5L127 71.75C128.333 71.4167 130.083 71.25 132.25 71.25C134.583 71.25 136.583 70.9167 138.25 70.25L148.25 69.75C150.25 69.5833 152.583 69.5 155.25 69.5C157.917 69.3333 160.167 69.25 162 69.25C162.833 69.25 163.167 69.3333 163 69.5C162.833 69.6667 163.083 69.75 163.75 69.75C164.75 69.75 165.417 69.6667 165.75 69.5C166.083 69.3333 166.833 69.25 168 69.25H170.25L170.75 68.5C171.583 67.1667 172.5 66.1667 173.5 65.5C174.5 64.8333 175.917 64.5833 177.75 64.75C179.583 64.75 180.917 65.5 181.75 67C181.917 67.1667 181.917 67.4167 181.75 67.75C181.75 67.9167 181.833 68.0833 182 68.25C182 68.4167 182.167 69 182.5 70C182.833 70 183.167 70.0833 183.5 70.25C184 70.25 184.333 70.25 184.5 70.25C184.833 70.4167 184.917 70.5833 184.75 70.75C184.583 70.9167 184.583 71.0833 184.75 71.25C185.25 71.4167 185.583 71.4167 185.75 71.25C186.083 70.9167 186.5 70.75 187 70.75C188 70.75 188.667 70.9167 189 71.25L192 72C193.167 72.5 193.75 73.25 193.75 74.25C193.75 75.0833 193.167 75.3333 192 75L190 74.25L187.5 74C186.833 73.8333 186 73.75 185 73.75C184 73.5833 183 73.5 182 73.5L180.75 77.25C179.917 79.75 179.25 82.4167 178.75 85.25C178.417 88.0833 176.75 90.25 173.75 91.75C173.583 92.4167 173 93.9167 172 96.25C171.167 98.4167 170.333 100.583 169.5 102.75C168.667 104.75 168.083 105.917 167.75 106.25C167.25 106.917 166.75 107.583 166.25 108.25C165.917 108.75 165.667 109.417 165.5 110.25C165.333 111.917 164.75 114.167 163.75 117C162.75 119.667 161.667 122.417 160.5 125.25C159.333 128.083 158.333 130.333 157.5 132C156.667 132.667 155.917 133.167 155.25 133.5C154.75 133.833 155 134.583 156 135.75C155.5 136.917 155 137.5 154.5 137.5C154 137.333 153.333 137.167 152.5 137C152.833 137.667 153.083 138.167 153.25 138.5C153.583 138.667 153.833 139.167 154 140C152.833 142.833 151.417 146.25 149.75 150.25C148.25 154.25 146.583 157.417 144.75 159.75C143.583 160.25 142.667 160.75 142 161.25C141.5 161.75 141.583 162.75 142.25 164.25C141.583 165.25 141.25 166.083 141.25 166.75L139.5 169.5C138.833 170 138.167 170.583 137.5 171.25C137 171.75 136.75 172.5 136.75 173.5L135.25 175.75C134.417 176.083 133.667 176.5 133 177C132.333 177.5 132 178.333 132 179.5C127 185.167 121.5 188.75 115.5 190.25L117.5 191.75C117.833 191.75 118.5 192.083 119.5 192.75C120.667 193.417 121.333 193.917 121.5 194.25C123.5 195.75 125.083 196.75 126.25 197.25C127.583 197.75 128.833 198 130 198C131.333 198 133.25 197.75 135.75 197.25H137C138.167 197.25 138.75 197.5 138.75 198C138.917 198.5 138.667 199.083 138 199.75C137.833 199.917 137.5 200.167 137 200.5C136.667 201 136.417 201.25 136.25 201.25C135.75 201.25 135.25 201.333 134.75 201.5C134.25 201.667 133.667 201.75 133 201.75ZM106.25 186.5L105.5 186C105 185 104 184.083 102.5 183.25C101.167 182.417 99.9167 181.417 98.75 180.25C97.5833 179.083 96.5 177.917 95.5 176.75C94.6667 175.417 93.8333 174.333 93 173.5C92.6667 173 92 172.167 91 171C90.1667 169.667 89.25 168.417 88.25 167.25C87.5833 166.583 87.1667 165.833 87 165C87 164.167 86.8333 163.667 86.5 163.5C85.8333 162.667 85.1667 161.917 84.5 161.25C83.8333 160.417 83.1667 159.417 82.5 158.25C81.8333 156.917 81.0833 155.417 80.25 153.75C79.4167 152.083 78.3333 150.5 77 149L72.5 143.5C74.8333 152.333 78.3333 160.167 83 167C87.6667 173.833 92.5833 178.917 97.75 182.25C99.25 183.25 100.667 184.167 102 185C103.5 185.667 104.917 186.167 106.25 186.5ZM101.227 259C98.7266 259 96.5599 258.75 94.7266 258.25C93.5599 257.917 92.3932 257.5 91.2266 257C90.0599 256.5 88.8099 255.917 87.4766 255.25L86.9766 255C86.3099 254.667 85.5599 254.167 84.7266 253.5C83.8932 253 83.0599 252.583 82.2266 252.25C81.5599 252.083 80.6432 251.583 79.4766 250.75C78.6432 250.083 78.1432 249.417 77.9766 248.75C77.6432 248.083 77.7266 247.667 78.2266 247.5C78.3932 247.5 78.6432 247.583 78.9766 247.75C79.3099 248.083 79.6432 248.333 79.9766 248.5C80.3099 248.667 80.7266 248.917 81.2266 249.25C81.5599 249.583 81.8932 249.833 82.2266 250C83.0599 250.333 83.8099 250.583 84.4766 250.75C84.9766 251.083 85.5599 251.417 86.2266 251.75C87.7266 252.417 88.8099 252.833 89.4766 253C90.1432 253.167 91.1432 253.333 92.4766 253.5L95.7266 253.75C101.56 254.083 106.56 253.333 110.727 251.5C114.893 249.667 118.643 247.25 121.977 244.25C125.143 241.417 128.06 238.5 130.727 235.5C131.227 234.167 131.81 232.917 132.477 231.75C132.977 230.583 133.56 229.75 134.227 229.25C134.393 229.083 134.56 229.167 134.727 229.5C134.893 230 135.06 230.167 135.227 230C135.56 229.5 135.81 228.667 135.977 227.5C136.143 226.5 136.393 225.75 136.727 225.25C137.06 224.917 137.393 225 137.727 225.5C137.893 226 138.06 226.167 138.227 226C138.56 225.667 138.727 225 138.727 224C138.727 223.167 138.81 222.583 138.977 222.25C140.81 219.917 142.393 217.75 143.727 215.75C145.06 213.75 146.56 211.417 148.227 208.75C149.06 207.417 150.143 205.917 151.477 204.25C152.643 202.583 153.81 200.917 154.977 199.25C156.31 196.417 157.81 194.083 159.477 192.25V191.75C159.477 191.083 159.643 190.417 159.977 189.75C160.31 189.083 160.56 188.5 160.727 188C161.06 186.667 161.393 185.833 161.727 185.5C162.06 185.167 162.31 184.25 162.477 182.75H162.727C161.893 180.75 161.727 179 162.227 177.5C162.56 176.833 163.143 176.083 163.977 175.25C164.977 174.25 165.727 173.417 166.227 172.75C166.56 171.917 166.643 171.417 166.477 171.25V170.5C166.477 169.333 166.727 168.333 167.227 167.5C167.893 166.667 168.477 165.667 168.977 164.5C169.143 163.833 169.477 163.5 169.977 163.5H170.727C171.06 163.5 171.227 163.25 171.227 162.75C171.227 162.417 171.143 162 170.977 161.5C170.977 160.833 170.893 160.167 170.727 159.5C170.893 158.333 171.393 157.583 172.227 157.25H172.727C173.06 155.083 173.393 153.583 173.727 152.75C174.06 151.75 174.477 150.917 174.977 150.25L177.227 147.25L177.977 144.5C178.31 143.833 178.643 143.333 178.977 143C179.31 142.5 179.643 142.083 179.977 141.75V141.5C180.143 141 180.393 140.583 180.727 140.25C181.06 139.75 181.31 139.333 181.477 139L182.477 137C182.477 136.667 182.81 135.917 183.477 134.75C184.143 133.583 184.56 132.917 184.727 132.75C185.727 130.917 186.477 129.667 186.977 129C187.643 128.333 188.643 127.167 189.977 125.5C190.31 124.833 190.81 124 191.477 123C192.31 121.833 193.06 120.75 193.727 119.75L189.727 120.5C189.393 120.667 189.227 120.833 189.227 121C189.227 121 189.06 121 188.727 121C188.393 121.167 187.893 121.333 187.227 121.5C186.56 121.667 186.06 121.75 185.727 121.75C185.227 121.75 184.56 121.75 183.727 121.75C182.893 121.583 182.06 121.5 181.227 121.5C181.06 121.5 180.893 121.333 180.727 121C180.56 120.667 180.31 120.583 179.977 120.75C179.81 120.75 179.477 120.917 178.977 121.25C178.477 121.583 178.06 121.833 177.727 122C177.56 122 177.393 122 177.227 122C177.06 121.833 176.893 121.833 176.727 122C176.56 122 176.31 122.083 175.977 122.25C175.81 122.417 175.56 122.583 175.227 122.75C174.393 122.917 173.477 123.167 172.477 123.5C171.477 123.667 170.393 124 169.227 124.5H168.727C168.227 124.5 167.977 124.25 167.977 123.75C167.977 122.75 168.477 122.167 169.477 122C170.643 121.667 172.06 121.167 173.727 120.5C175.393 119.833 177.06 119.333 178.727 119C179.227 119 179.643 118.917 179.977 118.75C180.477 118.583 180.893 118.5 181.227 118.5C181.727 118.5 182.143 118.417 182.477 118.25C182.977 118.083 183.477 118 183.977 118C184.31 117.667 184.56 117.5 184.727 117.5C186.06 117.5 187.393 117.167 188.727 116.5C190.06 115.667 191.56 114.833 193.227 114C194.227 113.667 195.143 113 195.977 112C196.977 111 197.643 110.417 197.977 110.25C198.31 109.917 198.56 109.583 198.727 109.25C199.06 108.917 199.56 108.583 200.227 108.25C200.893 107.25 201.727 106.167 202.727 105C203.893 103.833 205.393 103.167 207.227 103C207.893 103 209.06 103.167 210.727 103.5C212.56 103.667 213.56 103.75 213.727 103.75C214.393 103.917 214.727 104.5 214.727 105.5C214.727 107.167 214.143 108.333 212.977 109C212.643 109.167 212.477 109.667 212.477 110.5C212.643 111.167 212.56 111.667 212.227 112L208.477 114C207.477 114.5 206.727 115 206.227 115.5C205.893 115.833 205.143 116.167 203.977 116.5C203.643 116.5 203.143 116.583 202.477 116.75C201.977 116.917 201.477 117.083 200.977 117.25C200.477 118.25 199.893 119.083 199.227 119.75C198.727 120.25 198.06 121.25 197.227 122.75C195.56 125.417 194.727 127 194.727 127.5C194.727 127.833 194.477 128.417 193.977 129.25C193.81 129.417 193.643 129.833 193.477 130.5C193.31 131 193.143 131.417 192.977 131.75L189.477 137C189.477 137.167 189.143 137.583 188.477 138.25C187.81 138.75 187.393 139.167 187.227 139.5C187.06 139.833 186.977 140.083 186.977 140.25C187.143 140.417 187.227 140.583 187.227 140.75C187.227 141.25 186.977 141.583 186.477 141.75C186.143 141.917 185.977 142.083 185.977 142.25C185.81 142.417 185.643 142.5 185.477 142.5C185.477 142.333 185.31 142.417 184.977 142.75C184.81 142.917 184.643 143.417 184.477 144.25C184.477 144.917 184.393 145.333 184.227 145.5C183.227 147.167 182.643 148.833 182.477 150.5C182.31 152 181.643 153.667 180.477 155.5C179.477 157.667 179.227 158.75 179.727 158.75C180.227 158.75 180.477 158.75 180.477 158.75C182.81 156.417 186.143 153 190.477 148.5C194.977 143.833 199.56 139.417 204.227 135.25C204.727 134.75 205.227 134.083 205.727 133.25C206.227 132.417 206.727 131.833 207.227 131.5C208.393 130.333 209.643 129.417 210.977 128.75C212.31 127.917 213.56 127 214.727 126C215.56 125.333 216.31 124.917 216.977 124.75C217.81 124.583 218.56 124.25 219.227 123.75C219.56 123.583 219.643 123.417 219.477 123.25C219.31 122.917 219.393 122.667 219.727 122.5C221.56 121.5 222.56 120.917 222.727 120.75C222.893 120.583 223.56 120.333 224.727 120C226.56 119.333 228.643 119 230.977 119C232.477 119 233.393 119.083 233.727 119.25C234.56 119.75 235.477 120.167 236.477 120.5C237.477 120.833 237.977 121.833 237.977 123.5C237.977 124.333 238.06 124.833 238.227 125C238.393 125 238.477 125.583 238.477 126.75C238.477 127.583 238.31 128.917 237.977 130.75C237.81 132.583 237.643 134 237.477 135L236.477 141.25C236.31 141.75 236.31 142.25 236.477 142.75C236.643 143.25 236.643 143.75 236.477 144.25C236.31 144.417 236.06 144.667 235.727 145C235.393 145.333 235.143 145.667 234.977 146C233.81 146.167 232.977 146.75 232.477 147.75C232.143 148.583 232.56 148.917 233.727 148.75C233.56 148.917 233.227 149.167 232.727 149.5C232.393 149.833 232.143 150.167 231.977 150.5C231.81 150.667 231.893 150.833 232.227 151C232.56 151 232.393 151.583 231.727 152.75C231.227 153.583 230.727 154.667 230.227 156C229.727 157.333 229.227 158.417 228.727 159.25C228.227 159.917 227.727 160.333 227.227 160.5C226.893 160.667 226.477 161.083 225.977 161.75C225.81 162.083 225.727 162.417 225.727 162.75C225.727 163.083 225.56 163.417 225.227 163.75C225.06 164.083 224.727 164.333 224.227 164.5C223.893 164.667 223.56 164.917 223.227 165.25C217.893 171.583 211.393 177.333 203.727 182.5C196.227 187.667 188.227 190.917 179.727 192.25C179.227 192.25 178.727 192.25 178.227 192.25C177.893 192.417 177.56 192.5 177.227 192.5C174.56 192.5 172.477 191.833 170.977 190.5C169.643 189.167 168.393 187.75 167.227 186.25C166.893 187.417 166.56 188.5 166.227 189.5C165.893 190.667 165.56 191.833 165.227 193C164.893 194.167 164.643 195.5 164.477 197C164.477 198.5 164.06 199.417 163.227 199.75C162.727 199.917 162.31 199.667 161.977 199C161.643 198.333 161.477 198.917 161.477 200.75C161.81 200.917 161.893 201.25 161.727 201.75C161.393 202.25 161.227 202.667 161.227 203C161.393 203.333 161.477 203.833 161.477 204.5C161.477 205.333 161.227 206.083 160.727 206.75C160.06 207.417 159.56 208.167 159.227 209C159.06 209.5 158.727 209.75 158.227 209.75C158.06 209.75 157.81 209.667 157.477 209.5C157.143 209.333 156.893 209.25 156.727 209.25C156.56 209.25 156.477 209.417 156.477 209.75C156.477 210.083 156.727 211.25 157.227 213.25C157.227 214.25 156.727 214.75 155.727 214.75H154.977C154.81 216.583 154.56 217.917 154.227 218.75C153.893 219.75 153.477 220.5 152.977 221L151.227 222.25C149.56 223.583 148.393 225.5 147.727 228C147.56 228.5 147.227 228.917 146.727 229.25C146.06 229.583 145.56 230 145.227 230.5C145.227 230.667 145.227 230.75 145.227 230.75C145.06 230.75 144.977 230.833 144.977 231C144.977 233 144.143 235 142.477 237C140.643 239 138.81 240.75 136.977 242.25C136.643 242.917 136.227 243.583 135.727 244.25C135.227 244.917 134.643 245.5 133.977 246C133.143 246.833 132.227 247.333 131.227 247.5C130.06 247.667 128.977 248.167 127.977 249C127.643 249.167 127.56 249.583 127.727 250.25C127.893 251.083 127.81 251.583 127.477 251.75C123.643 254.083 119.31 255.833 114.477 257C109.643 258.333 105.227 259 101.227 259ZM180.477 187.5C181.977 187.5 184.143 187.167 186.977 186.5C189.81 185.667 192.393 184.583 194.727 183.25C195.56 182.917 196.31 182.5 196.977 182C197.81 181.333 198.56 180.667 199.227 180C199.893 179.333 200.31 178.667 200.477 178C201.143 177 202.143 175.917 203.477 174.75L204.727 174C205.393 173.333 206.06 172.167 206.727 170.5H207.227C207.893 170.333 208.31 170 208.477 169.5L209.727 169C209.727 168.5 209.893 168.083 210.227 167.75C210.56 167.083 211.143 166.333 211.977 165.5C212.81 164.5 213.227 163.667 213.227 163C213.227 162.833 213.06 162.583 212.727 162.25C212.893 161.917 213.227 161.333 213.727 160.5C214.393 159.5 214.81 158.833 214.977 158.5L216.477 158.25L217.227 156.75V156.25C219.393 156.25 220.31 155.417 219.977 153.75L221.727 149C222.06 147.667 222.56 146.75 223.227 146.25C223.227 145.583 223.31 145.167 223.477 145C223.643 144.833 223.81 144.5 223.977 144C224.477 142.667 224.977 140.917 225.477 138.75C226.143 136.583 226.477 135.5 226.477 135.5L225.727 134C225.727 133.667 225.477 133.167 224.977 132.5C224.643 131.833 224.56 131.25 224.727 130.75C225.06 129.583 225.643 128.833 226.477 128.5C227.477 128.167 227.643 127.917 226.977 127.75H226.727C226.227 127.75 225.643 127.833 224.977 128C224.477 128.167 223.81 128.417 222.977 128.75C221.977 129.083 221.06 129.167 220.227 129C219.393 128.833 218.727 128.917 218.227 129.25C216.56 129.75 214.81 130.583 212.977 131.75C211.143 132.75 209.143 134.167 206.977 136C206.81 136.167 206.56 136.5 206.227 137C205.893 137.5 205.56 137.917 205.227 138.25C205.06 138.417 204.727 138.5 204.227 138.5C203.893 138.5 203.56 138.667 203.227 139C203.06 139.167 203.06 139.417 203.227 139.75C203.393 140.083 203.393 140.417 203.227 140.75C202.893 140.917 202.56 141.083 202.227 141.25C201.893 141.417 201.56 141.667 201.227 142L200.477 143.25C197.643 146.417 194.143 149.917 189.977 153.75C185.977 157.583 182.56 161.333 179.727 165L215.727 151.25C216.727 150.75 217.643 150.5 218.477 150.5C218.81 150.333 219.227 150.5 219.727 151C219.893 151.333 219.727 151.667 219.227 152C218.893 152.333 218.643 152.417 218.477 152.25L217.227 152C217.06 152.167 216.727 152.417 216.227 152.75C215.893 153.083 215.56 153.25 215.227 153.25L213.977 153.75C213.81 153.917 213.477 154 212.977 154C212.477 154 212.143 154.083 211.977 154.25C211.643 154.417 211.393 154.583 211.227 154.75C211.06 154.75 210.81 154.917 210.477 155.25C206.643 156.917 202.477 158.833 197.977 161C193.477 163 189.31 165 185.477 167C180.643 169.667 177.31 172.25 175.477 174.75C173.643 177.083 172.727 179.167 172.727 181C172.727 182.5 173.143 183.833 173.977 185C174.81 186 175.81 186.667 176.977 187C178.143 187.333 179.31 187.5 180.477 187.5Z" fill="black"/>
<g filter="url(#filter0_d_2301_70)">
<path d="M291.5 153C291.5 233.974 227.637 299.5 149 299.5C70.3631 299.5 6.5 233.974 6.5 153C6.5 72.0257 70.3631 6.5 149 6.5C227.637 6.5 291.5 72.0257 291.5 153Z" stroke="black" stroke-width="5" shape-rendering="crispEdges"/>
</g>
<defs>
<filter id="filter0_d_2301_70" x="0" y="4" width="298" height="306" filterUnits="userSpaceOnUse" color-interpolation-filters="sRGB">
<feFlood flood-opacity="0" result="BackgroundImageFix"/>
<feColorMatrix in="SourceAlpha" type="matrix" values="0 0 0 0 0 0 0 0 0 0 0 0 0 0 0 0 0 0 127 0" result="hardAlpha"/>
<feOffset dy="4"/>
<feGaussianBlur stdDeviation="2"/>
<feComposite in2="hardAlpha" operator="out"/>
<feColorMatrix type="matrix" values="0 0 0 0 0 0 0 0 0 0 0 0 0 0 0 0 0 0 0.25 0"/>
<feBlend mode="normal" in2="BackgroundImageFix" result="effect1_dropShadow_2301_70"/>
<feBlend mode="normal" in="SourceGraphic" in2="effect1_dropShadow_2301_70" result="shape"/>
</filter>
</defs>
</svg>
